<?xml version="1.0" encoding="UTF-8"?>
<svg id="Camada_2" data-name="Camada 2" xmlns="http://www.w3.org/2000/svg" viewBox="0 0 727.95 237.4">
  <defs>
    <style>
      .cls-1 {
        fill: #008dab;
      }

      .cls-2 {
        fill: #0d354e;
      }

      .cls-3 {
        fill: #00b2cc;
      }
    </style>
  </defs>
  <g id="Camada_1-2" data-name="Camada 1">
    <g>
      <g>
        <path class="cls-1" d="M45.09,75.66l-25.78,33.19c-1.24,1.6-3.68,1.52-4.81-.15L0,87.36l25.06-16.77,20.03,5.07Z"/>
        <path class="cls-1" d="M95.67,59.92l-5.07,20.03-33.19-25.78c-1.6-1.24-1.52-3.68.15-4.81l21.34-14.5,16.77,25.06Z"/>
        <g>
          <path class="cls-3" d="M86.3,125.46l-2.86-.72,45.51-60.21.28-.36c1.36-1.79,2.17-4.03,2.17-6.46,0-4.92-3.31-9.06-7.82-10.33l-.23-.06-44.45-12.46,16.77,25.06-5.07,20.03-.72,2.87L29.67,37.31l-.36-.28c-1.79-1.36-4.03-2.17-6.46-2.17-4.92,0-9.06,3.31-10.33,7.82l-.06.23L0,87.36l25.06-16.77,20.03,5.07,2.87.72L2.45,136.59l-.28.36c-1.36,1.79-2.17,4.03-2.17,6.46,0,4.92,3.31,9.06,7.82,10.33l.23.06,44.45,12.46-16.77-25.06,5.07-20.04.72-2.86,60.21,45.51.36.28c1.79,1.36,4.03,2.17,6.46,2.17,4.92,0,9.06-3.31,10.33-7.82l.06-.23,12.46-44.45-25.06,16.77-20.04-5.07ZM42.51,114.39l9.36-37.02,37.02,9.36-9.36,37.02-37.02-9.36Z"/>
          <path class="cls-1" d="M131.4,113.76l-25.06,16.77-20.04-5.07,25.79-33.19c1.24-1.6,3.67-1.52,4.81.15l14.5,21.34Z"/>
        </g>
        <path class="cls-1" d="M73.84,151.76l-21.34,14.5-16.77-25.06,5.07-20.04,33.19,25.79c1.6,1.24,1.52,3.67-.15,4.81Z"/>
      </g>
      <rect class="cls-2" x="165" y="41.52" width="20.93" height="116.07"/>
      <path class="cls-2" d="M228.61,62.46v59.34c0,8.21,6.65,14.86,14.85,14.86h1.05v20.93h-13.29c-.88,0-1.75-.05-2.61-.15-10.92-1.2-19.58-9.87-20.78-20.78-.1-.86-.15-1.73-.15-2.61V12.25L228.61,0v41.52h30.45v20.94h-30.45Z"/>
      <path class="cls-2" d="M697.5,62.46v59.34c0,8.21,6.65,14.86,14.85,14.86h1.05v20.93h-13.29c-.88,0-1.75-.05-2.61-.15-10.92-1.2-19.58-9.87-20.78-20.78-.1-.86-.15-1.73-.15-2.61V12.25l20.93-12.25v41.52h30.45v20.94h-30.45Z"/>
      <rect class="cls-3" x="165" y="12.25" width="20.93" height="16.05"/>
      <path class="cls-2" d="M475.58,41.52c-9.38,1.06-16.67,9.02-16.67,18.69v67.86c0,.86.06,1.7.18,2.52,1.22,9.2,9.11,16.29,18.64,16.29h55.96v12.5s-.04.02-.06.04c-.4,3.41-2.88,6.2-6.14,7.05-.03.09-.07.18-.1.27h-40.33c-5.23,0-9.48,4.24-9.48,9.48v17.92h20.93v-.14c0-4.59,3.72-8.3,8.3-8.3h33.76c7.76,0,14.05-6.29,14.05-14.06V61.03l4.59-3v-16.51h-83.63ZM533.69,130.59h-38.9c-8.26,0-14.95-6.69-14.95-14.95v-43.61c0-4.97,4.03-9,9-9h44.85v67.56Z"/>
      <path class="cls-2" d="M442.75,63.33s.01.02,0,.03l-19.48,10.01c-2-5.84-7.54-10.04-14.06-10.04h-13.48v94.26h-25.26V41.52h48.81c12.41,0,22.59,9.61,23.47,21.81Z"/>
      <path class="cls-2" d="M350.62,62.45c-1.2-10.92-9.86-19.58-20.78-20.78-.86-.1-1.74-.15-2.62-.15h-48.55v20.93h36.31c8.2,0,14.86,6.65,14.86,14.86v5.73h-25.5c-1.02,0-2.02.04-3.02.12-12.61,1.01-23.44,8.29-29.39,18.72-3.1,5.44-4.87,11.73-4.87,18.44,0,5.86,1.35,11.4,3.77,16.34,6.05,12.39,18.78,20.93,33.51,20.93h46.43v-92.52c0-.89-.05-1.76-.15-2.62ZM287.05,119.27c0-9.6,7.78-17.39,17.38-17.39h25.41v34.78h-25.41c-9.6,0-17.38-7.79-17.38-17.39Z"/>
      <path class="cls-2" d="M640.83,41.52h-69.32v90.05c0,1.44.12,2.84.34,4.21,1.79,11,10.47,19.68,21.47,21.47,1.37.22,2.77.34,4.21.34h50.57v-21.81h-35.66c-10.56,0-19.12-8.56-19.12-19.13v-2.36h57.89c4.83,0,8.74-3.91,8.74-8.74v-44.9c0-10.57-8.56-19.13-19.12-19.13ZM638.14,88.26c0,3.41-2.76,6.18-6.17,6.18h-38.65v-31.11h32.47c6.82,0,12.35,5.53,12.35,12.35v12.58Z"/>
      <g>
        <path class="cls-3" d="M192.88,175.82v5.7h-11.26v42.36h-5.63v-42.36h-10.98v-5.7h27.87Z"/>
        <path class="cls-3" d="M200.36,211.11h-5.35v2.2c0,2.88,2.4,5.29,5.35,5.29,1.65,0,3.98-.96,5.7-3.36l4.53,3.29c-2.95,4.33-7.07,5.63-10.23,5.63-5.83,0-10.92-4.6-10.92-10.85v-11.88c0-5.77,4.74-10.98,10.92-10.98s10.85,4.87,10.85,10.92-5.01,9.75-10.85,9.75ZM200.36,206.78c2.88,0,5.29-2.47,5.29-5.42s-2.4-5.29-5.29-5.29-5.35,2.47-5.35,5.42v5.29h5.35Z"/>
        <path class="cls-3" d="M238.12,211.38c-.07,7-4.74,12.84-10.85,12.84s-10.98-5.01-10.98-10.92v-11.94c0-6.18,5.08-10.92,10.98-10.92s10.78,5.63,10.85,12.84h-5.56c0-4.12-2.4-7.21-5.29-7.21s-5.42,2.4-5.42,5.29v11.94c0,2.95,2.47,5.35,5.42,5.35s5.29-3.29,5.29-7.28h5.56Z"/>
        <path class="cls-3" d="M249.24,201.36v22.52h-5.56v-33.09h4.39l.76,3.36c1.24-2.88,3.91-3.57,5.77-3.71,5.97-.34,10.92,5.22,10.92,10.92v22.52h-5.56v-22.52c0-2.88-2.47-5.36-5.42-5.36s-5.29,2.47-5.29,5.36Z"/>
        <path class="cls-3" d="M293.46,213.3c0,7.35-5.63,10.92-11.19,10.92s-11.12-3.57-11.12-10.92v-12.01c0-7.41,5.56-10.85,11.12-10.85s11.19,3.43,11.19,10.85v12.01ZM287.9,201.29c0-3.5-2.81-5.35-5.63-5.35s-5.63,1.85-5.63,5.35v12.01c0,3.5,2.88,5.29,5.63,5.29s5.63-1.79,5.63-5.29v-12.01Z"/>
        <path class="cls-3" d="M311.45,218.38v5.49c-7.07,0-12.49-4.6-12.49-11.12v-35.42h5.49v35.42c0,3.16,3.02,5.63,7,5.63Z"/>
        <path class="cls-3" d="M335.13,213.3c0,7.35-5.63,10.92-11.19,10.92s-11.12-3.57-11.12-10.92v-12.01c0-7.41,5.56-10.85,11.12-10.85s11.19,3.43,11.19,10.85v12.01ZM329.57,201.29c0-3.5-2.81-5.35-5.63-5.35s-5.63,1.85-5.63,5.35v12.01c0,3.5,2.88,5.29,5.63,5.29s5.63-1.79,5.63-5.29v-12.01Z"/>
        <path class="cls-3" d="M351.54,237.4c-2.4,0-6.04-1.3-8.72-3.71l3.16-4.39c1.99,1.65,4.26,2.47,5.56,2.47,3.02,0,5.49-2.33,5.49-5.22v-5.84c-.96,2.68-3.71,3.36-5.35,3.36-5.77,0-11.05-3.78-11.05-10.23v-13.18c0-5.49,5.35-10.71,11.05-10.23,2.2.21,4.94,1.03,5.84,4.19l.55-3.84h4.53v35.77c0,6.25-5.15,10.85-11.05,10.85ZM346.19,213.85c-.21,3.23,2.75,4.67,5.63,4.67,2.61,0,5.22-1.79,5.22-4.6v-13.46c0-2.47-2.88-4.39-5.35-4.46-2.81,0-5.49,1.92-5.49,4.67v13.18Z"/>
        <path class="cls-3" d="M374.82,183.65c0,1.99-1.72,3.43-3.57,3.43s-3.36-1.44-3.36-3.43c0-2.13,1.58-3.5,3.36-3.5s3.57,1.37,3.57,3.5ZM374.06,223.88h-5.49v-33.02h5.49v33.02Z"/>
        <path class="cls-3" d="M376.53,213.3v-1.92c0-5.77,4.39-10.71,10.71-10.71,2.2,0,4.87,1.44,5.63,3.64l-.14-2.88c0-2.88-2.4-5.29-5.35-5.29-1.37,0-3.36.82-5.22,2.61l-3.02-4.6c2.33-2.13,5.56-3.64,8.24-3.64,5.83,0,10.92,4.87,10.92,10.92v22.45h-4.46l-.55-3.5c-.69,2.88-4.19,3.91-5.9,3.91-5.9,0-10.85-5.08-10.85-10.98ZM387.38,218.73c2.61,0,5.35-2.13,5.35-4.6v-3.36c0-2.75-2.4-4.67-5.35-4.67s-5.29,2.33-5.29,5.29v1.92c0,2.95,2.4,5.42,5.29,5.42Z"/>
      </g>
    </g>
  </g>
</svg>